<svg width="56" height="56" viewBox="0 0 56 56" xmlns="http://www.w3.org/2000/svg" fill="none">
  <defs>
    <linearGradient id="grad-wrench" x1="0%" y1="0%" x2="100%" y2="100%">
      <stop offset="0%" stop-color="hsl(217 91% 58%)"/>
      <stop offset="100%" stop-color="hsl(217 91% 68%)"/>
    </linearGradient>
  </defs>
  <rect x="0" y="0" width="56" height="56" rx="12" fill="url(#grad-wrench)"/>
  <g transform="translate(16,16)" style="color:#fff">
    <!-- lucide wrench.svg exact -->
    <svg xmlns="http://www.w3.org/2000/svg" width="24" height="24" viewBox="0 0 24 24" fill="none" stroke="currentColor" stroke-width="2" stroke-linecap="round" stroke-linejoin="round">
      <path d="M14.7 6.3a1 1 0 0 0 0 1.4l1.6 1.6a1 1 0 0 0 1.4 0l3.106-3.105c.32-.322.863-.22.983.218a6 6 0 0 1-8.259 7.057l-7.91 7.91a1 1 0 0 1-2.999-3l7.91-7.91a6 6 0 0 1 7.057-8.259c.438.12.54.662.219.984z" />
    </svg>
  </g>
</svg>

